<svg xmlns="http://www.w3.org/2000/svg" xmlns:xlink="http://www.w3.org/1999/xlink" width="500" zoomAndPan="magnify" viewBox="0 0 375 374.999991" height="500" preserveAspectRatio="xMidYMid meet" version="1.0"><defs><clipPath id="875f74d39f"><path d="M 0.714844 22.347656 L 374.964844 22.347656 L 374.964844 352.347656 L 0.714844 352.347656 Z M 0.714844 22.347656 " clip-rule="nonzero"/></clipPath><clipPath id="4c817bb922"><path d="M 0.714844 344 L 32.171875 344 L 32.171875 375 L 0.714844 375 Z M 0.714844 344 " clip-rule="nonzero"/></clipPath></defs><g clip-path="url(#875f74d39f)"><path fill="#ae9371" d="M 263.558594 172.613281 C 229.6875 206.40625 208.730469 253.191406 208.730469 304.921875 L 166.972656 304.921875 C 166.972656 253.265625 146.015625 206.484375 112.144531 172.613281 C 82.914062 143.304688 44.019531 123.742188 0.714844 118.945312 L 0.714844 165.5 C 0.714844 268.8125 84.460938 352.636719 187.851562 352.636719 C 291.242188 352.636719 374.988281 268.886719 374.988281 165.5 L 374.988281 118.945312 C 331.683594 123.742188 292.789062 143.304688 263.558594 172.613281 Z M 187.851562 230.6875 C 176.949219 200.21875 159.394531 172.148438 135.964844 148.796875 C 129.3125 142.144531 122.277344 135.960938 114.929688 130.3125 C 121.425781 84.148438 149.109375 44.789062 187.851562 22.363281 C 226.59375 44.789062 254.277344 84.148438 260.695312 130.238281 C 253.347656 135.960938 246.3125 142.066406 239.664062 148.71875 C 216.308594 172.226562 198.753906 200.21875 187.851562 230.6875 Z M 187.851562 230.6875 " fill-opacity="1" fill-rule="evenodd"/></g></svg>