<svg xmlns="http://www.w3.org/2000/svg" xmlns:xlink="http://www.w3.org/1999/xlink" width="130" zoomAndPan="magnify" viewBox="0 0 97.5 97.499997" height="130" preserveAspectRatio="xMidYMid meet" version="1.0"><defs><clipPath id="2657f793f1"><path d="M 0 0 L 96.257812 0 L 96.257812 96.257812 L 0 96.257812 Z M 0 0 " clip-rule="nonzero"/></clipPath><clipPath id="82af370691"><path d="M 14.078125 15.574219 L 82.726562 15.574219 L 82.726562 81.238281 L 14.078125 81.238281 Z M 14.078125 15.574219 " clip-rule="nonzero"/></clipPath></defs><g clip-path="url(#2657f793f1)"><path fill="#fb7ea2" d="M 48.292969 4.828125 C 72.257812 4.828125 91.753906 24.324219 91.753906 48.292969 C 91.753906 72.257812 72.257812 91.753906 48.292969 91.753906 C 24.324219 91.753906 4.828125 72.257812 4.828125 48.292969 C 4.828125 24.324219 24.324219 4.828125 48.292969 4.828125 M 48.292969 0 C 21.621094 0 0 21.621094 0 48.292969 C 0 74.960938 21.621094 96.582031 48.292969 96.582031 C 74.960938 96.582031 96.582031 74.960938 96.582031 48.292969 C 96.582031 21.621094 74.960938 0 48.292969 0 Z M 48.292969 0 " fill-opacity="1" fill-rule="nonzero"/></g><g clip-path="url(#82af370691)"><path fill="#fb7ea2" d="M 57.121094 48.472656 C 56.429688 48.699219 55.695312 48.394531 55.347656 47.789062 L 51.527344 49.03125 C 51.578125 49.261719 51.605469 49.496094 51.605469 49.742188 C 51.605469 50.730469 51.167969 51.617188 50.476562 52.222656 L 52.84375 55.476562 C 53.480469 55.1875 54.25 55.375 54.679688 55.964844 C 55.167969 56.636719 55.019531 57.578125 54.34375 58.066406 C 53.671875 58.558594 52.730469 58.40625 52.242188 57.734375 C 51.8125 57.148438 51.875 56.355469 52.34375 55.835938 L 49.980469 52.582031 C 49.488281 52.871094 48.917969 53.039062 48.308594 53.039062 C 47.695312 53.039062 47.117188 52.871094 46.625 52.574219 L 44.261719 55.828125 C 44.730469 56.34375 44.789062 57.136719 44.363281 57.726562 C 43.875 58.398438 42.929688 58.546875 42.257812 58.058594 C 41.585938 57.570312 41.4375 56.628906 41.925781 55.953125 C 42.351562 55.367188 43.125 55.179688 43.761719 55.464844 L 46.125 52.210938 C 45.441406 51.605469 45.011719 50.722656 45.011719 49.742188 C 45.011719 49.492188 45.039062 49.25 45.09375 49.015625 L 41.273438 47.773438 C 40.925781 48.382812 40.191406 48.683594 39.5 48.457031 C 38.707031 48.203125 38.273438 47.351562 38.53125 46.5625 C 38.789062 45.769531 39.640625 45.335938 40.429688 45.59375 C 41.121094 45.816406 41.539062 46.496094 41.460938 47.1875 L 45.285156 48.429688 C 45.753906 47.351562 46.785156 46.570312 48.007812 46.457031 L 48.007812 42.445312 C 47.324219 42.300781 46.808594 41.695312 46.808594 40.96875 C 46.808594 40.136719 47.484375 39.464844 48.316406 39.464844 C 49.148438 39.464844 49.820312 40.136719 49.820312 40.96875 C 49.820312 41.695312 49.308594 42.300781 48.625 42.445312 L 48.625 46.460938 C 49.84375 46.574219 50.875 47.363281 51.339844 48.445312 L 55.160156 47.203125 C 55.082031 46.507812 55.5 45.832031 56.191406 45.609375 C 56.980469 45.351562 57.832031 45.785156 58.089844 46.574219 C 58.34375 47.367188 57.914062 48.214844 57.121094 48.472656 Z M 82.300781 43.949219 C 82.191406 43.550781 82.027344 43.167969 81.8125 42.8125 C 81.726562 42.671875 81.632812 42.535156 81.535156 42.402344 C 81.332031 42.140625 81.101562 41.898438 80.84375 41.683594 C 80.714844 41.574219 80.582031 41.472656 80.4375 41.378906 C 79.945312 41.054688 79.371094 40.820312 78.742188 40.714844 L 78.125 40.609375 C 78.015625 40.589844 77.925781 40.542969 77.851562 40.476562 C 77.816406 40.445312 77.785156 40.40625 77.757812 40.367188 C 77.730469 40.324219 77.710938 40.28125 77.695312 40.234375 C 77.679688 40.191406 77.671875 40.144531 77.667969 40.09375 C 77.664062 40 77.683594 39.898438 77.730469 39.808594 C 77.753906 39.765625 77.785156 39.722656 77.824219 39.679688 L 78.296875 39.199219 C 78.617188 38.871094 78.871094 38.511719 79.070312 38.128906 C 79.265625 37.75 79.402344 37.347656 79.480469 36.941406 C 79.496094 36.859375 79.511719 36.777344 79.523438 36.695312 C 79.542969 36.53125 79.558594 36.367188 79.5625 36.199219 C 79.566406 35.953125 79.554688 35.703125 79.519531 35.460938 C 79.484375 35.214844 79.429688 34.972656 79.355469 34.738281 C 79.28125 34.5 79.1875 34.269531 79.074219 34.046875 C 79 33.898438 78.914062 33.753906 78.820312 33.613281 C 78.636719 33.335938 78.417969 33.074219 78.164062 32.835938 C 77.914062 32.597656 77.628906 32.386719 77.3125 32.203125 C 77.207031 32.144531 77.101562 32.085938 76.996094 32.03125 C 76.960938 32.011719 76.925781 31.996094 76.890625 31.976562 C 76.820312 31.941406 76.746094 31.902344 76.671875 31.867188 C 76.628906 31.84375 76.585938 31.824219 76.542969 31.804688 C 76.476562 31.773438 76.410156 31.742188 76.339844 31.710938 C 76.292969 31.691406 76.246094 31.671875 76.199219 31.648438 C 76.136719 31.621094 76.066406 31.59375 76 31.566406 C 75.953125 31.546875 75.902344 31.527344 75.855469 31.507812 C 75.789062 31.480469 75.71875 31.457031 75.652344 31.429688 C 75.601562 31.410156 75.550781 31.394531 75.503906 31.375 C 75.433594 31.351562 75.363281 31.328125 75.292969 31.304688 C 75.242188 31.285156 75.195312 31.269531 75.144531 31.253906 C 75.070312 31.230469 74.992188 31.207031 74.917969 31.183594 C 74.871094 31.171875 74.824219 31.15625 74.777344 31.144531 C 74.683594 31.117188 74.589844 31.09375 74.496094 31.066406 C 74.464844 31.058594 74.4375 31.050781 74.40625 31.042969 C 74.28125 31.011719 74.15625 30.984375 74.03125 30.957031 C 73.988281 30.945312 73.949219 30.9375 73.90625 30.929688 C 73.820312 30.910156 73.730469 30.894531 73.644531 30.878906 C 73.59375 30.867188 73.539062 30.859375 73.488281 30.851562 C 73.40625 30.835938 73.328125 30.820312 73.246094 30.808594 C 73.191406 30.800781 73.136719 30.792969 73.078125 30.785156 C 73.003906 30.773438 72.925781 30.761719 72.84375 30.753906 C 72.789062 30.746094 72.730469 30.738281 72.671875 30.734375 C 72.589844 30.722656 72.511719 30.714844 72.433594 30.707031 C 72.375 30.703125 72.316406 30.695312 72.257812 30.691406 C 72.175781 30.683594 72.09375 30.679688 72.011719 30.671875 C 71.953125 30.667969 71.894531 30.664062 71.835938 30.664062 C 71.75 30.65625 71.660156 30.652344 71.570312 30.652344 C 71.515625 30.648438 71.464844 30.644531 71.410156 30.644531 C 71.304688 30.640625 71.199219 30.640625 71.09375 30.640625 C 71.054688 30.640625 71.015625 30.640625 70.972656 30.640625 C 70.9375 30.640625 70.902344 30.640625 70.867188 30.640625 C 70.773438 30.640625 70.679688 30.640625 70.582031 30.644531 C 70.535156 30.644531 70.484375 30.648438 70.433594 30.648438 C 70.351562 30.652344 70.269531 30.65625 70.1875 30.660156 C 70.132812 30.664062 70.078125 30.664062 70.023438 30.667969 C 69.941406 30.671875 69.863281 30.679688 69.785156 30.683594 C 69.726562 30.6875 69.667969 30.691406 69.613281 30.695312 C 69.53125 30.703125 69.453125 30.710938 69.371094 30.71875 C 69.316406 30.722656 69.257812 30.730469 69.199219 30.734375 C 69.117188 30.742188 69.03125 30.753906 68.949219 30.761719 C 68.894531 30.769531 68.839844 30.777344 68.785156 30.78125 C 68.691406 30.796875 68.59375 30.808594 68.496094 30.820312 C 68.453125 30.828125 68.410156 30.835938 68.363281 30.839844 C 68.222656 30.863281 68.082031 30.882812 67.941406 30.90625 C 67.910156 30.914062 67.878906 30.917969 67.84375 30.925781 C 67.734375 30.945312 67.625 30.964844 67.511719 30.984375 C 67.457031 30.996094 67.402344 31.007812 67.351562 31.019531 C 67.257812 31.039062 67.167969 31.054688 67.074219 31.074219 C 67.015625 31.085938 66.957031 31.101562 66.894531 31.113281 C 66.808594 31.132812 66.71875 31.152344 66.628906 31.175781 C 66.570312 31.1875 66.507812 31.203125 66.445312 31.21875 C 66.355469 31.242188 66.269531 31.261719 66.179688 31.285156 C 66.117188 31.300781 66.054688 31.316406 65.992188 31.335938 C 65.902344 31.359375 65.808594 31.382812 65.714844 31.410156 C 65.65625 31.425781 65.597656 31.441406 65.539062 31.457031 C 65.433594 31.488281 65.332031 31.519531 65.230469 31.550781 C 65.179688 31.5625 65.128906 31.578125 65.078125 31.59375 C 64.925781 31.640625 64.769531 31.6875 64.613281 31.738281 C 64.480469 31.785156 64.34375 31.828125 64.210938 31.878906 C 63.140625 32.265625 62.105469 32.808594 61.109375 33.457031 C 61.09375 33.46875 61.078125 33.480469 61.0625 33.488281 C 60.816406 34.3125 60.507812 35.152344 60.140625 36.007812 C 60.136719 36.019531 60.128906 36.03125 60.125 36.042969 C 58.175781 40.554688 54.929688 44.71875 52.472656 47.484375 C 52.234375 47.050781 51.933594 46.660156 51.578125 46.320312 C 52.300781 45.5 53.089844 44.558594 53.886719 43.527344 C 54.058594 43.304688 54.230469 43.078125 54.402344 42.847656 C 55.003906 42.046875 55.605469 41.191406 56.179688 40.304688 C 57.164062 38.78125 58.082031 37.148438 58.804688 35.472656 C 58.863281 35.335938 58.921875 35.195312 58.976562 35.058594 C 59.3125 34.242188 59.597656 33.417969 59.828125 32.589844 C 59.914062 32.277344 59.992188 31.964844 60.058594 31.648438 C 60.121094 31.367188 60.171875 31.082031 60.21875 30.796875 C 60.332031 30.085938 60.394531 29.375 60.394531 28.671875 C 60.394531 23.171875 58.722656 19.222656 56.09375 16.796875 C 56.03125 16.742188 55.96875 16.6875 55.902344 16.632812 C 55.882812 16.617188 55.863281 16.601562 55.84375 16.585938 C 55.800781 16.550781 55.753906 16.515625 55.707031 16.480469 C 55.683594 16.464844 55.660156 16.449219 55.640625 16.429688 C 55.59375 16.398438 55.546875 16.367188 55.5 16.335938 C 55.476562 16.324219 55.457031 16.308594 55.433594 16.296875 C 55.371094 16.253906 55.304688 16.214844 55.242188 16.179688 C 55.238281 16.175781 55.234375 16.175781 55.230469 16.171875 C 55.160156 16.132812 55.089844 16.097656 55.015625 16.0625 C 54.996094 16.054688 54.976562 16.042969 54.957031 16.035156 C 54.90625 16.011719 54.851562 15.988281 54.800781 15.964844 C 54.777344 15.957031 54.753906 15.945312 54.726562 15.9375 C 54.675781 15.914062 54.625 15.894531 54.574219 15.878906 C 54.550781 15.871094 54.527344 15.859375 54.507812 15.855469 C 54.4375 15.832031 54.371094 15.808594 54.304688 15.792969 C 54.296875 15.789062 54.292969 15.785156 54.285156 15.785156 C 54.210938 15.761719 54.132812 15.746094 54.058594 15.726562 C 54.039062 15.722656 54.019531 15.71875 53.996094 15.714844 C 53.941406 15.703125 53.886719 15.695312 53.832031 15.683594 C 53.804688 15.679688 53.78125 15.675781 53.753906 15.671875 C 53.703125 15.664062 53.648438 15.65625 53.597656 15.652344 C 53.570312 15.648438 53.546875 15.644531 53.523438 15.644531 C 53.460938 15.636719 53.394531 15.632812 53.332031 15.628906 C 53.320312 15.628906 53.308594 15.625 53.292969 15.625 C 53.21875 15.621094 53.144531 15.621094 53.070312 15.621094 C 52.980469 15.621094 52.886719 15.625 52.796875 15.628906 C 52.78125 15.632812 52.765625 15.632812 52.75 15.632812 C 52.671875 15.640625 52.597656 15.648438 52.519531 15.65625 C 52.492188 15.660156 52.460938 15.664062 52.429688 15.671875 C 52.371094 15.679688 52.308594 15.6875 52.246094 15.699219 C 52.214844 15.707031 52.183594 15.714844 52.148438 15.722656 C 52.089844 15.734375 52.03125 15.746094 51.972656 15.761719 C 51.941406 15.769531 51.910156 15.777344 51.878906 15.785156 C 51.8125 15.804688 51.75 15.824219 51.683594 15.847656 C 51.660156 15.851562 51.636719 15.859375 51.613281 15.867188 C 51.527344 15.898438 51.4375 15.929688 51.355469 15.96875 C 51.347656 15.972656 51.335938 15.972656 51.332031 15.976562 C 51.253906 16.011719 51.175781 16.046875 51.101562 16.082031 C 51.074219 16.09375 51.050781 16.109375 51.023438 16.121094 C 50.96875 16.152344 50.910156 16.183594 50.855469 16.214844 C 50.824219 16.230469 50.796875 16.246094 50.769531 16.265625 C 50.714844 16.296875 50.664062 16.328125 50.613281 16.363281 C 50.585938 16.382812 50.558594 16.398438 50.53125 16.417969 C 50.476562 16.457031 50.421875 16.496094 50.367188 16.535156 C 50.347656 16.550781 50.324219 16.566406 50.304688 16.585938 C 50.230469 16.644531 50.15625 16.703125 50.085938 16.769531 C 50.082031 16.773438 50.078125 16.777344 50.074219 16.777344 C 50.007812 16.839844 49.945312 16.902344 49.878906 16.964844 C 49.859375 16.988281 49.839844 17.011719 49.816406 17.035156 C 49.773438 17.082031 49.730469 17.128906 49.6875 17.179688 C 49.664062 17.207031 49.640625 17.234375 49.617188 17.261719 C 49.578125 17.3125 49.539062 17.363281 49.503906 17.414062 C 49.480469 17.441406 49.457031 17.46875 49.4375 17.5 C 49.398438 17.554688 49.359375 17.613281 49.324219 17.667969 C 49.308594 17.695312 49.289062 17.722656 49.273438 17.75 C 49.21875 17.832031 49.171875 17.921875 49.121094 18.011719 L 48.832031 18.5625 C 48.816406 18.597656 48.792969 18.628906 48.769531 18.65625 C 48.746094 18.683594 48.722656 18.707031 48.695312 18.730469 C 48.671875 18.75 48.648438 18.765625 48.625 18.78125 C 48.625 18.78125 48.625 18.78125 48.621094 18.78125 C 48.582031 18.808594 48.535156 18.824219 48.488281 18.835938 C 48.472656 18.839844 48.457031 18.84375 48.4375 18.847656 C 48.433594 18.847656 48.425781 18.851562 48.417969 18.851562 C 48.40625 18.851562 48.394531 18.851562 48.378906 18.855469 C 48.371094 18.855469 48.355469 18.855469 48.347656 18.855469 C 48.335938 18.855469 48.324219 18.855469 48.3125 18.855469 C 48.300781 18.851562 48.285156 18.851562 48.273438 18.851562 C 48.25 18.847656 48.230469 18.84375 48.207031 18.839844 C 48.207031 18.839844 48.203125 18.839844 48.203125 18.835938 C 48.191406 18.835938 48.179688 18.828125 48.167969 18.828125 C 48.132812 18.816406 48.101562 18.800781 48.070312 18.78125 C 48.070312 18.78125 48.066406 18.78125 48.066406 18.78125 C 47.984375 18.730469 47.910156 18.660156 47.859375 18.5625 L 47.542969 17.964844 C 47.496094 17.875 47.445312 17.789062 47.394531 17.703125 C 47.378906 17.675781 47.359375 17.648438 47.34375 17.621094 C 47.304688 17.566406 47.269531 17.507812 47.230469 17.453125 C 47.207031 17.425781 47.1875 17.394531 47.164062 17.367188 C 47.128906 17.316406 47.089844 17.265625 47.050781 17.21875 C 47.027344 17.191406 47.003906 17.160156 46.980469 17.132812 C 46.9375 17.085938 46.894531 17.039062 46.851562 16.992188 C 46.832031 16.96875 46.808594 16.945312 46.785156 16.921875 C 46.726562 16.855469 46.660156 16.796875 46.597656 16.734375 C 46.589844 16.730469 46.585938 16.726562 46.582031 16.722656 C 46.511719 16.660156 46.441406 16.601562 46.367188 16.542969 C 46.34375 16.523438 46.320312 16.503906 46.292969 16.488281 C 46.242188 16.449219 46.195312 16.410156 46.140625 16.375 C 46.113281 16.355469 46.082031 16.335938 46.054688 16.316406 C 46.003906 16.285156 45.957031 16.253906 45.90625 16.222656 C 45.875 16.203125 45.84375 16.1875 45.8125 16.167969 C 45.761719 16.136719 45.707031 16.109375 45.652344 16.082031 C 45.625 16.066406 45.597656 16.050781 45.566406 16.039062 C 45.492188 16 45.417969 15.96875 45.34375 15.933594 C 45.335938 15.929688 45.324219 15.925781 45.316406 15.921875 C 45.234375 15.890625 45.148438 15.855469 45.0625 15.828125 C 45.035156 15.816406 45.003906 15.808594 44.976562 15.800781 C 44.917969 15.78125 44.859375 15.761719 44.796875 15.746094 C 44.765625 15.738281 44.730469 15.726562 44.699219 15.71875 C 44.640625 15.703125 44.585938 15.691406 44.527344 15.679688 C 44.492188 15.671875 44.460938 15.664062 44.425781 15.660156 C 44.363281 15.648438 44.304688 15.636719 44.242188 15.628906 C 44.214844 15.625 44.183594 15.617188 44.152344 15.613281 C 44.070312 15.605469 43.988281 15.597656 43.90625 15.589844 C 43.898438 15.589844 43.890625 15.589844 43.878906 15.589844 C 43.789062 15.582031 43.695312 15.578125 43.605469 15.578125 C 43.53125 15.578125 43.457031 15.578125 43.382812 15.582031 C 43.375 15.582031 43.371094 15.585938 43.363281 15.585938 C 43.292969 15.585938 43.226562 15.59375 43.15625 15.597656 C 43.132812 15.601562 43.109375 15.605469 43.085938 15.609375 C 43.03125 15.613281 42.980469 15.621094 42.929688 15.628906 C 42.902344 15.632812 42.875 15.636719 42.847656 15.640625 C 42.796875 15.648438 42.742188 15.660156 42.691406 15.671875 C 42.667969 15.675781 42.644531 15.679688 42.621094 15.683594 C 42.546875 15.699219 42.472656 15.71875 42.398438 15.738281 C 42.390625 15.742188 42.386719 15.742188 42.378906 15.746094 C 42.3125 15.761719 42.246094 15.785156 42.179688 15.808594 C 42.152344 15.816406 42.128906 15.824219 42.105469 15.832031 C 42.054688 15.847656 42.007812 15.867188 41.957031 15.886719 C 41.929688 15.898438 41.90625 15.90625 41.878906 15.917969 C 41.828125 15.9375 41.78125 15.960938 41.730469 15.984375 C 41.710938 15.992188 41.6875 16.003906 41.664062 16.015625 C 41.59375 16.050781 41.523438 16.085938 41.453125 16.121094 C 41.449219 16.125 41.445312 16.125 41.441406 16.128906 C 41.375 16.164062 41.3125 16.203125 41.25 16.242188 C 41.226562 16.257812 41.203125 16.269531 41.183594 16.285156 C 41.136719 16.3125 41.089844 16.34375 41.042969 16.378906 C 41.019531 16.394531 40.996094 16.410156 40.972656 16.425781 C 40.929688 16.460938 40.882812 16.496094 40.839844 16.53125 C 40.816406 16.546875 40.796875 16.5625 40.777344 16.578125 C 40.714844 16.628906 40.652344 16.683594 40.589844 16.738281 C 37.921875 19.15625 36.222656 23.125 36.222656 28.671875 C 36.222656 29.523438 36.3125 30.382812 36.476562 31.246094 C 36.503906 31.386719 36.53125 31.53125 36.5625 31.675781 C 36.71875 32.394531 36.925781 33.113281 37.171875 33.828125 C 37.371094 34.398438 37.59375 34.96875 37.835938 35.53125 C 39.667969 39.746094 42.703125 43.671875 45.035156 46.320312 C 44.683594 46.660156 44.378906 47.050781 44.144531 47.484375 C 41.695312 44.722656 38.464844 40.585938 36.519531 36.105469 C 36.511719 36.09375 36.507812 36.082031 36.503906 36.070312 C 36.125 35.191406 35.808594 34.332031 35.554688 33.488281 C 35.453125 33.421875 35.351562 33.359375 35.25 33.292969 C 35.078125 33.1875 34.902344 33.078125 34.730469 32.976562 C 34.351562 32.757812 33.96875 32.554688 33.582031 32.371094 C 33.0625 32.125 32.535156 31.914062 32 31.738281 C 31.847656 31.6875 31.691406 31.640625 31.539062 31.59375 C 31.488281 31.578125 31.441406 31.566406 31.390625 31.550781 C 31.289062 31.519531 31.183594 31.488281 31.082031 31.460938 C 31.023438 31.441406 30.964844 31.425781 30.910156 31.410156 C 30.8125 31.382812 30.71875 31.359375 30.625 31.335938 C 30.566406 31.316406 30.507812 31.304688 30.449219 31.289062 C 30.355469 31.265625 30.265625 31.242188 30.175781 31.21875 C 30.117188 31.207031 30.054688 31.191406 29.996094 31.175781 C 29.90625 31.15625 29.816406 31.136719 29.726562 31.117188 C 29.667969 31.101562 29.613281 31.089844 29.554688 31.078125 C 29.460938 31.058594 29.367188 31.039062 29.273438 31.019531 C 29.222656 31.007812 29.171875 31 29.121094 30.988281 C 29.015625 30.96875 28.90625 30.949219 28.800781 30.929688 C 28.765625 30.925781 28.726562 30.917969 28.691406 30.910156 C 28.546875 30.886719 28.402344 30.863281 28.261719 30.839844 C 28.261719 30.839844 28.257812 30.839844 28.257812 30.839844 C 28.117188 30.820312 27.980469 30.800781 27.84375 30.785156 C 27.800781 30.777344 27.761719 30.773438 27.71875 30.769531 C 27.621094 30.757812 27.523438 30.746094 27.429688 30.734375 C 27.378906 30.730469 27.328125 30.726562 27.28125 30.722656 C 27.191406 30.710938 27.105469 30.703125 27.019531 30.699219 C 26.964844 30.691406 26.914062 30.6875 26.863281 30.683594 C 26.777344 30.679688 26.695312 30.671875 26.613281 30.667969 C 26.5625 30.664062 26.507812 30.664062 26.457031 30.660156 C 26.375 30.65625 26.292969 30.652344 26.210938 30.648438 C 26.160156 30.648438 26.109375 30.644531 26.058594 30.644531 C 25.972656 30.640625 25.894531 30.640625 25.808594 30.640625 C 25.761719 30.640625 25.714844 30.636719 25.664062 30.636719 C 25.609375 30.636719 25.554688 30.640625 25.496094 30.640625 C 25.40625 30.640625 25.320312 30.640625 25.230469 30.644531 C 25.171875 30.644531 25.117188 30.648438 25.058594 30.648438 C 24.976562 30.652344 24.890625 30.65625 24.804688 30.660156 C 24.75 30.664062 24.691406 30.667969 24.636719 30.671875 C 24.550781 30.675781 24.46875 30.683594 24.386719 30.6875 C 24.332031 30.691406 24.277344 30.699219 24.222656 30.703125 C 24.136719 30.710938 24.054688 30.71875 23.972656 30.730469 C 23.917969 30.734375 23.867188 30.738281 23.816406 30.746094 C 23.730469 30.757812 23.644531 30.769531 23.558594 30.78125 C 23.511719 30.789062 23.464844 30.792969 23.417969 30.800781 C 23.324219 30.816406 23.230469 30.832031 23.136719 30.847656 C 23.101562 30.851562 23.0625 30.859375 23.023438 30.867188 C 22.765625 30.914062 22.507812 30.96875 22.257812 31.03125 C 22.226562 31.039062 22.195312 31.046875 22.164062 31.054688 C 22.074219 31.078125 21.980469 31.101562 21.890625 31.128906 C 21.847656 31.140625 21.804688 31.152344 21.761719 31.164062 C 21.683594 31.1875 21.605469 31.210938 21.527344 31.234375 C 21.480469 31.25 21.4375 31.265625 21.390625 31.28125 C 21.316406 31.304688 21.242188 31.328125 21.171875 31.351562 C 21.125 31.371094 21.078125 31.386719 21.03125 31.402344 C 20.960938 31.429688 20.890625 31.453125 20.824219 31.480469 C 20.777344 31.5 20.730469 31.519531 20.683594 31.535156 C 20.617188 31.5625 20.546875 31.59375 20.480469 31.621094 C 20.433594 31.640625 20.390625 31.660156 20.34375 31.679688 C 20.277344 31.707031 20.207031 31.738281 20.140625 31.769531 C 20.097656 31.789062 20.054688 31.808594 20.015625 31.828125 C 19.941406 31.863281 19.867188 31.902344 19.796875 31.9375 C 19.761719 31.957031 19.726562 31.972656 19.691406 31.988281 C 19.585938 32.042969 19.480469 32.101562 19.378906 32.160156 C 19.140625 32.292969 18.917969 32.445312 18.714844 32.613281 C 18.511719 32.78125 18.328125 32.964844 18.164062 33.160156 C 18.054688 33.289062 17.953125 33.421875 17.859375 33.5625 C 17.765625 33.703125 17.679688 33.847656 17.605469 33.996094 C 17.566406 34.070312 17.53125 34.144531 17.496094 34.222656 C 17.429688 34.375 17.371094 34.53125 17.320312 34.6875 C 17.269531 34.84375 17.230469 35.007812 17.195312 35.167969 C 17.164062 35.328125 17.140625 35.492188 17.125 35.660156 C 17.121094 35.742188 17.113281 35.824219 17.113281 35.90625 C 17.101562 36.238281 17.128906 36.570312 17.191406 36.898438 C 17.222656 37.0625 17.261719 37.222656 17.3125 37.386719 C 17.390625 37.625 17.484375 37.863281 17.605469 38.09375 C 17.800781 38.472656 18.058594 38.835938 18.378906 39.164062 L 18.8125 39.609375 C 18.890625 39.6875 18.9375 39.78125 18.957031 39.875 C 18.96875 39.925781 18.972656 39.972656 18.96875 40.023438 C 18.964844 40.117188 18.933594 40.210938 18.882812 40.292969 C 18.804688 40.414062 18.675781 40.507812 18.511719 40.535156 L 17.847656 40.648438 C 17.214844 40.757812 16.644531 40.988281 16.152344 41.3125 C 16.082031 41.359375 16.011719 41.410156 15.945312 41.457031 C 15.8125 41.558594 15.683594 41.664062 15.5625 41.777344 C 15.4375 41.894531 15.324219 42.011719 15.21875 42.136719 C 15 42.390625 14.816406 42.664062 14.660156 42.953125 C 14.582031 43.101562 14.515625 43.25 14.453125 43.402344 C 14.390625 43.558594 14.339844 43.714844 14.296875 43.875 C 14.207031 44.191406 14.15625 44.523438 14.140625 44.859375 C 14.136719 44.941406 14.136719 45.027344 14.136719 45.109375 C 14.144531 45.699219 14.269531 46.304688 14.53125 46.886719 C 15.175781 48.324219 16.164062 49.675781 17.507812 50.886719 C 17.988281 51.316406 18.515625 51.730469 19.089844 52.125 C 19.320312 52.28125 19.554688 52.4375 19.800781 52.585938 C 21.144531 53.414062 22.71875 54.136719 24.53125 54.726562 C 24.699219 54.78125 24.871094 54.832031 25.042969 54.878906 C 25.089844 54.890625 25.136719 54.90625 25.1875 54.917969 C 25.324219 54.953125 25.460938 54.988281 25.597656 55.019531 C 25.636719 55.027344 25.679688 55.039062 25.71875 55.046875 C 25.890625 55.085938 26.066406 55.121094 26.242188 55.15625 C 26.28125 55.160156 26.320312 55.167969 26.359375 55.175781 C 26.5 55.199219 26.644531 55.222656 26.789062 55.242188 C 26.839844 55.25 26.890625 55.257812 26.941406 55.265625 C 27.113281 55.289062 27.28125 55.308594 27.449219 55.324219 C 27.460938 55.328125 27.476562 55.328125 27.488281 55.328125 C 27.667969 55.347656 27.851562 55.363281 28.035156 55.375 C 28.085938 55.378906 28.136719 55.382812 28.1875 55.386719 C 28.335938 55.394531 28.480469 55.402344 28.625 55.40625 C 28.671875 55.40625 28.714844 55.410156 28.761719 55.410156 C 28.945312 55.417969 29.132812 55.417969 29.316406 55.417969 C 29.363281 55.417969 29.410156 55.417969 29.457031 55.417969 C 29.578125 55.417969 29.703125 55.417969 29.824219 55.414062 C 29.882812 55.414062 29.945312 55.410156 30.007812 55.410156 C 30.117188 55.40625 30.230469 55.402344 30.339844 55.394531 C 30.402344 55.394531 30.464844 55.390625 30.527344 55.386719 C 30.644531 55.378906 30.761719 55.371094 30.878906 55.363281 C 30.933594 55.359375 30.988281 55.359375 31.042969 55.355469 C 31.210938 55.339844 31.382812 55.328125 31.554688 55.308594 L 31.554688 55.3125 C 31.707031 55.296875 31.859375 55.28125 32.011719 55.261719 C 32.769531 55.175781 33.527344 55.058594 34.285156 54.914062 C 34.585938 54.855469 34.886719 54.792969 35.183594 54.726562 C 36.832031 54.367188 38.4375 53.898438 39.929688 53.386719 C 40.0625 53.34375 40.199219 53.296875 40.332031 53.25 C 41 53.015625 41.644531 52.773438 42.253906 52.535156 C 42.378906 52.484375 42.496094 52.4375 42.617188 52.390625 C 43.117188 52.191406 43.59375 51.992188 44.042969 51.796875 C 44.257812 52.242188 44.542969 52.648438 44.878906 53.003906 C 41.492188 54.480469 36.558594 56.273438 31.691406 56.742188 C 31.679688 56.742188 31.667969 56.746094 31.652344 56.746094 C 30.859375 56.820312 30.085938 56.859375 29.34375 56.859375 C 29.195312 56.859375 29.050781 56.855469 28.90625 56.851562 C 28.882812 56.871094 28.859375 56.886719 28.835938 56.90625 C 28.492188 57.183594 28.160156 57.472656 27.84375 57.773438 C 27.527344 58.070312 27.226562 58.378906 26.941406 58.699219 C 26.660156 59.015625 26.390625 59.347656 26.144531 59.6875 C 25.941406 59.96875 25.75 60.242188 25.5625 60.519531 C 24.917969 61.484375 24.378906 62.4375 23.941406 63.371094 C 23.6875 63.902344 23.472656 64.429688 23.285156 64.949219 C 23.050781 65.601562 22.867188 66.242188 22.730469 66.867188 C 22.675781 67.121094 22.628906 67.367188 22.589844 67.617188 C 22.53125 67.984375 22.488281 68.351562 22.460938 68.714844 C 22.441406 68.953125 22.433594 69.191406 22.429688 69.429688 C 22.417969 70.257812 22.488281 71.054688 22.644531 71.824219 C 22.660156 71.902344 22.679688 71.984375 22.699219 72.0625 C 22.703125 72.085938 22.710938 72.109375 22.71875 72.132812 C 22.734375 72.191406 22.75 72.246094 22.769531 72.304688 C 22.777344 72.324219 22.78125 72.347656 22.789062 72.371094 C 22.8125 72.441406 22.839844 72.511719 22.867188 72.582031 C 22.867188 72.585938 22.871094 72.589844 22.871094 72.597656 C 22.902344 72.671875 22.933594 72.742188 22.964844 72.8125 C 22.972656 72.832031 22.984375 72.851562 22.992188 72.875 C 23.019531 72.925781 23.042969 72.976562 23.070312 73.027344 C 23.082031 73.050781 23.09375 73.070312 23.105469 73.089844 C 23.136719 73.152344 23.171875 73.210938 23.207031 73.269531 C 23.210938 73.277344 23.214844 73.285156 23.21875 73.292969 C 23.261719 73.355469 23.304688 73.421875 23.347656 73.484375 C 23.359375 73.5 23.371094 73.515625 23.382812 73.535156 C 23.417969 73.582031 23.449219 73.628906 23.488281 73.671875 C 23.5 73.691406 23.515625 73.707031 23.527344 73.726562 C 23.570312 73.777344 23.609375 73.828125 23.652344 73.875 C 23.660156 73.882812 23.667969 73.894531 23.675781 73.902344 C 23.726562 73.957031 23.777344 74.011719 23.832031 74.066406 C 23.84375 74.082031 23.859375 74.09375 23.871094 74.105469 C 23.914062 74.148438 23.953125 74.1875 23.996094 74.226562 C 24.015625 74.242188 24.03125 74.257812 24.046875 74.269531 C 24.09375 74.3125 24.140625 74.351562 24.191406 74.394531 C 24.199219 74.402344 24.210938 74.410156 24.21875 74.417969 C 24.277344 74.464844 24.339844 74.511719 24.398438 74.554688 C 24.414062 74.5625 24.429688 74.574219 24.441406 74.582031 C 24.492188 74.617188 24.539062 74.648438 24.589844 74.683594 C 24.605469 74.695312 24.625 74.707031 24.644531 74.71875 C 24.695312 74.75 24.75 74.78125 24.800781 74.8125 C 24.8125 74.816406 24.828125 74.824219 24.839844 74.832031 C 24.90625 74.871094 24.972656 74.902344 25.039062 74.9375 C 25.054688 74.945312 25.070312 74.953125 25.082031 74.957031 C 25.136719 74.984375 25.191406 75.007812 25.246094 75.03125 C 25.265625 75.042969 25.285156 75.050781 25.308594 75.058594 C 25.363281 75.082031 25.417969 75.101562 25.472656 75.125 C 25.488281 75.128906 25.503906 75.136719 25.519531 75.140625 C 25.589844 75.167969 25.660156 75.191406 25.730469 75.210938 C 25.746094 75.214844 25.761719 75.21875 25.777344 75.222656 C 25.835938 75.242188 25.894531 75.257812 25.949219 75.269531 C 25.972656 75.277344 25.996094 75.28125 26.019531 75.285156 C 26.074219 75.300781 26.128906 75.3125 26.1875 75.320312 C 26.203125 75.324219 26.222656 75.328125 26.242188 75.332031 C 26.316406 75.347656 26.390625 75.359375 26.464844 75.367188 C 26.480469 75.367188 26.492188 75.371094 26.507812 75.371094 C 26.570312 75.378906 26.628906 75.382812 26.691406 75.390625 C 26.714844 75.390625 26.738281 75.390625 26.761719 75.394531 C 26.820312 75.398438 26.875 75.398438 26.933594 75.398438 C 26.953125 75.402344 26.972656 75.402344 26.996094 75.402344 C 27.039062 75.402344 27.085938 75.398438 27.132812 75.398438 C 27.171875 75.398438 27.210938 75.398438 27.25 75.394531 C 27.292969 75.394531 27.339844 75.390625 27.382812 75.386719 C 27.421875 75.382812 27.460938 75.378906 27.5 75.375 C 27.546875 75.371094 27.589844 75.363281 27.636719 75.359375 C 27.675781 75.351562 27.710938 75.347656 27.75 75.339844 C 27.796875 75.332031 27.84375 75.324219 27.886719 75.316406 C 27.925781 75.308594 27.964844 75.300781 28.003906 75.292969 C 28.050781 75.28125 28.09375 75.269531 28.140625 75.257812 C 28.179688 75.246094 28.214844 75.238281 28.253906 75.226562 C 28.300781 75.214844 28.347656 75.195312 28.398438 75.179688 C 28.433594 75.167969 28.46875 75.160156 28.503906 75.144531 C 28.554688 75.128906 28.609375 75.105469 28.664062 75.085938 C 28.691406 75.074219 28.722656 75.0625 28.75 75.050781 C 28.832031 75.015625 28.910156 74.980469 28.988281 74.941406 C 28.992188 74.941406 28.992188 74.9375 28.996094 74.9375 L 29.554688 74.664062 C 29.578125 74.652344 29.597656 74.640625 29.621094 74.632812 C 29.628906 74.632812 29.636719 74.628906 29.644531 74.628906 C 29.660156 74.625 29.675781 74.621094 29.691406 74.617188 C 29.699219 74.613281 29.707031 74.613281 29.71875 74.613281 C 29.734375 74.609375 29.75 74.609375 29.765625 74.605469 C 29.773438 74.605469 29.78125 74.605469 29.785156 74.605469 C 29.789062 74.605469 29.792969 74.605469 29.796875 74.605469 C 29.8125 74.605469 29.828125 74.605469 29.84375 74.609375 C 29.847656 74.609375 29.851562 74.609375 29.855469 74.609375 C 29.875 74.609375 29.898438 74.613281 29.921875 74.621094 C 29.925781 74.621094 29.933594 74.625 29.9375 74.625 C 29.953125 74.628906 29.96875 74.632812 29.984375 74.640625 C 29.992188 74.640625 30 74.644531 30.003906 74.648438 C 30.019531 74.652344 30.035156 74.660156 30.046875 74.667969 C 30.054688 74.671875 30.058594 74.671875 30.066406 74.675781 C 30.082031 74.6875 30.097656 74.695312 30.113281 74.707031 C 30.117188 74.710938 30.121094 74.710938 30.121094 74.710938 C 30.140625 74.726562 30.15625 74.738281 30.171875 74.753906 C 30.175781 74.757812 30.179688 74.761719 30.1875 74.769531 C 30.195312 74.777344 30.207031 74.789062 30.21875 74.800781 C 30.222656 74.808594 30.226562 74.8125 30.230469 74.820312 C 30.242188 74.832031 30.25 74.84375 30.257812 74.855469 C 30.261719 74.863281 30.265625 74.867188 30.269531 74.875 C 30.28125 74.894531 30.289062 74.910156 30.300781 74.929688 C 30.300781 74.929688 30.300781 74.933594 30.300781 74.933594 C 30.3125 74.953125 30.316406 74.976562 30.324219 74.996094 C 30.328125 75.003906 30.328125 75.011719 30.328125 75.019531 C 30.332031 75.035156 30.335938 75.050781 30.339844 75.066406 C 30.339844 75.074219 30.34375 75.082031 30.34375 75.089844 C 30.34375 75.105469 30.347656 75.121094 30.347656 75.140625 C 30.347656 75.148438 30.347656 75.152344 30.347656 75.160156 C 30.347656 75.1875 30.34375 75.210938 30.34375 75.234375 L 30.246094 75.90625 C 30.246094 75.90625 30.246094 75.90625 30.246094 75.910156 C 30.230469 75.996094 30.222656 76.082031 30.214844 76.167969 C 30.210938 76.195312 30.210938 76.226562 30.210938 76.253906 C 30.207031 76.3125 30.203125 76.371094 30.199219 76.425781 C 30.199219 76.460938 30.199219 76.496094 30.199219 76.53125 C 30.199219 76.582031 30.199219 76.632812 30.199219 76.683594 C 30.203125 76.71875 30.203125 76.753906 30.207031 76.792969 C 30.207031 76.839844 30.210938 76.890625 30.214844 76.9375 C 30.21875 76.972656 30.222656 77.011719 30.226562 77.046875 C 30.230469 77.09375 30.238281 77.140625 30.242188 77.1875 C 30.25 77.222656 30.253906 77.261719 30.261719 77.296875 C 30.269531 77.34375 30.277344 77.386719 30.285156 77.433594 C 30.292969 77.46875 30.300781 77.503906 30.308594 77.542969 C 30.320312 77.585938 30.332031 77.628906 30.34375 77.675781 C 30.351562 77.710938 30.359375 77.746094 30.371094 77.78125 C 30.382812 77.824219 30.398438 77.867188 30.410156 77.910156 C 30.421875 77.945312 30.433594 77.980469 30.445312 78.015625 C 30.460938 78.058594 30.476562 78.101562 30.492188 78.140625 C 30.507812 78.175781 30.519531 78.210938 30.535156 78.242188 C 30.550781 78.285156 30.570312 78.328125 30.585938 78.367188 C 30.601562 78.402344 30.617188 78.433594 30.632812 78.464844 C 30.652344 78.507812 30.671875 78.546875 30.695312 78.585938 C 30.710938 78.617188 30.726562 78.648438 30.742188 78.679688 C 30.765625 78.722656 30.789062 78.761719 30.8125 78.800781 C 30.828125 78.832031 30.847656 78.859375 30.863281 78.890625 C 30.890625 78.929688 30.914062 78.96875 30.941406 79.007812 C 30.960938 79.035156 30.976562 79.0625 30.996094 79.089844 C 31.023438 79.132812 31.054688 79.171875 31.085938 79.210938 C 31.101562 79.234375 31.121094 79.261719 31.140625 79.285156 C 31.171875 79.328125 31.207031 79.371094 31.242188 79.410156 C 31.257812 79.429688 31.273438 79.449219 31.292969 79.46875 C 31.335938 79.523438 31.382812 79.574219 31.433594 79.625 C 31.441406 79.632812 31.445312 79.640625 31.453125 79.648438 C 31.511719 79.707031 31.566406 79.761719 31.628906 79.816406 C 31.636719 79.828125 31.648438 79.835938 31.660156 79.847656 C 31.710938 79.890625 31.757812 79.933594 31.808594 79.976562 C 31.828125 79.992188 31.851562 80.007812 31.871094 80.027344 C 31.914062 80.058594 31.953125 80.09375 31.996094 80.125 C 32.023438 80.144531 32.046875 80.160156 32.074219 80.179688 C 32.113281 80.207031 32.152344 80.238281 32.195312 80.265625 C 32.222656 80.28125 32.25 80.300781 32.277344 80.316406 C 32.316406 80.34375 32.359375 80.367188 32.398438 80.390625 C 32.429688 80.410156 32.457031 80.425781 32.488281 80.445312 C 32.527344 80.464844 32.570312 80.488281 32.609375 80.511719 C 32.640625 80.527344 32.675781 80.542969 32.707031 80.558594 C 32.746094 80.578125 32.789062 80.597656 32.828125 80.617188 C 32.863281 80.628906 32.894531 80.644531 32.929688 80.660156 C 32.96875 80.675781 33.011719 80.695312 33.054688 80.710938 C 33.089844 80.722656 33.121094 80.738281 33.15625 80.75 C 33.199219 80.765625 33.242188 80.777344 33.285156 80.792969 C 33.320312 80.804688 33.355469 80.816406 33.390625 80.824219 C 33.433594 80.839844 33.480469 80.851562 33.523438 80.863281 C 33.558594 80.871094 33.59375 80.882812 33.632812 80.890625 C 33.675781 80.902344 33.722656 80.910156 33.765625 80.917969 C 33.800781 80.925781 33.839844 80.933594 33.875 80.941406 C 33.921875 80.949219 33.96875 80.957031 34.015625 80.960938 C 34.050781 80.96875 34.085938 80.972656 34.125 80.976562 C 34.171875 80.984375 34.21875 80.988281 34.265625 80.992188 C 34.304688 80.996094 34.339844 81 34.378906 81 C 34.425781 81.003906 34.476562 81.003906 34.527344 81.007812 C 34.5625 81.007812 34.597656 81.011719 34.636719 81.011719 C 34.691406 81.011719 34.75 81.007812 34.804688 81.007812 C 34.835938 81.003906 34.863281 81.007812 34.890625 81.003906 C 34.976562 81 35.066406 80.992188 35.152344 80.984375 C 35.824219 80.910156 36.5 80.773438 37.175781 80.570312 C 37.511719 80.46875 37.851562 80.347656 38.191406 80.210938 C 38.527344 80.078125 38.867188 79.921875 39.203125 79.753906 C 39.316406 79.695312 39.425781 79.636719 39.539062 79.578125 C 39.761719 79.453125 39.988281 79.324219 40.210938 79.1875 C 40.324219 79.121094 40.433594 79.046875 40.546875 78.976562 C 40.878906 78.757812 41.210938 78.523438 41.542969 78.269531 C 41.875 78.011719 42.203125 77.742188 42.527344 77.449219 C 43.617188 76.476562 44.679688 75.296875 45.699219 73.894531 C 46.199219 73.207031 46.632812 72.457031 47.007812 71.664062 C 47.132812 71.402344 47.25 71.132812 47.363281 70.859375 C 47.472656 70.585938 47.578125 70.304688 47.679688 70.023438 C 47.921875 69.335938 48.128906 68.625 48.308594 67.898438 C 48.347656 67.730469 48.386719 67.566406 48.421875 67.398438 L 48.425781 67.398438 C 49.050781 64.570312 49.222656 61.558594 49.183594 58.839844 C 49.179688 58.695312 49.179688 58.554688 49.175781 58.410156 C 49.144531 56.96875 49.050781 55.621094 48.941406 54.433594 C 49.4375 54.367188 49.910156 54.222656 50.347656 54.015625 C 50.707031 57.691406 50.886719 62.9375 49.828125 67.707031 C 49.824219 67.722656 49.824219 67.734375 49.820312 67.746094 C 49.609375 68.679688 49.359375 69.5625 49.070312 70.394531 C 49.082031 70.421875 49.089844 70.449219 49.101562 70.476562 C 49.207031 70.753906 49.320312 71.023438 49.4375 71.289062 C 49.613281 71.691406 49.804688 72.078125 50.011719 72.457031 C 50.148438 72.707031 50.289062 72.953125 50.441406 73.195312 C 50.515625 73.316406 50.59375 73.433594 50.675781 73.550781 C 50.753906 73.667969 50.832031 73.78125 50.917969 73.894531 C 51.320312 74.453125 51.730469 74.972656 52.148438 75.460938 C 52.355469 75.703125 52.566406 75.9375 52.777344 76.167969 C 52.988281 76.394531 53.199219 76.609375 53.414062 76.820312 C 54.375 77.765625 55.359375 78.542969 56.359375 79.160156 C 56.578125 79.296875 56.800781 79.425781 57.023438 79.550781 C 57.132812 79.609375 57.246094 79.667969 57.355469 79.726562 C 58.691406 80.410156 60.042969 80.820312 61.375 80.976562 C 61.464844 80.984375 61.554688 80.992188 61.644531 81 C 61.671875 81 61.699219 81 61.730469 81 C 61.789062 81.003906 61.847656 81.007812 61.90625 81.007812 C 61.933594 81.007812 61.960938 81.003906 61.984375 81.003906 C 62.046875 81.003906 62.105469 81 62.164062 80.996094 C 62.199219 80.996094 62.230469 80.992188 62.265625 80.988281 C 62.316406 80.984375 62.367188 80.980469 62.417969 80.976562 C 62.453125 80.972656 62.488281 80.964844 62.523438 80.960938 C 62.570312 80.953125 62.621094 80.945312 62.667969 80.9375 C 62.703125 80.933594 62.738281 80.925781 62.773438 80.917969 C 62.820312 80.910156 62.867188 80.898438 62.910156 80.886719 C 62.945312 80.878906 62.984375 80.871094 63.019531 80.859375 C 63.0625 80.847656 63.105469 80.839844 63.148438 80.824219 C 63.1875 80.8125 63.222656 80.804688 63.257812 80.789062 C 63.300781 80.777344 63.339844 80.761719 63.382812 80.75 C 63.417969 80.734375 63.453125 80.722656 63.488281 80.707031 C 63.53125 80.691406 63.570312 80.675781 63.609375 80.660156 C 63.644531 80.644531 63.679688 80.628906 63.714844 80.613281 C 63.753906 80.597656 63.792969 80.578125 63.832031 80.558594 C 63.867188 80.542969 63.902344 80.527344 63.933594 80.507812 C 63.972656 80.488281 64.011719 80.46875 64.046875 80.445312 C 64.082031 80.429688 64.113281 80.410156 64.148438 80.390625 C 64.183594 80.367188 64.21875 80.347656 64.253906 80.324219 C 64.289062 80.304688 64.320312 80.28125 64.351562 80.261719 C 64.386719 80.238281 64.421875 80.214844 64.457031 80.1875 C 64.488281 80.167969 64.519531 80.144531 64.546875 80.121094 C 64.582031 80.097656 64.617188 80.070312 64.648438 80.042969 C 64.679688 80.019531 64.710938 79.996094 64.738281 79.972656 C 64.773438 79.945312 64.804688 79.914062 64.835938 79.886719 C 64.863281 79.863281 64.890625 79.839844 64.917969 79.8125 C 64.953125 79.78125 64.984375 79.75 65.019531 79.714844 C 65.042969 79.691406 65.066406 79.667969 65.089844 79.644531 C 65.144531 79.589844 65.199219 79.53125 65.25 79.472656 C 65.269531 79.449219 65.289062 79.421875 65.308594 79.398438 C 65.339844 79.363281 65.371094 79.324219 65.402344 79.285156 C 65.425781 79.257812 65.445312 79.226562 65.46875 79.199219 C 65.492188 79.164062 65.519531 79.128906 65.546875 79.089844 C 65.566406 79.0625 65.585938 79.03125 65.609375 79 C 65.632812 78.960938 65.65625 78.925781 65.679688 78.890625 C 65.699219 78.855469 65.71875 78.824219 65.738281 78.792969 C 65.757812 78.753906 65.78125 78.71875 65.800781 78.679688 C 65.820312 78.648438 65.835938 78.613281 65.855469 78.578125 C 65.875 78.542969 65.894531 78.503906 65.910156 78.464844 C 65.929688 78.429688 65.945312 78.394531 65.960938 78.359375 C 65.976562 78.320312 65.996094 78.28125 66.011719 78.242188 C 66.027344 78.207031 66.039062 78.171875 66.054688 78.132812 C 66.070312 78.09375 66.082031 78.054688 66.097656 78.011719 C 66.109375 77.976562 66.121094 77.941406 66.136719 77.902344 C 66.148438 77.863281 66.160156 77.820312 66.171875 77.777344 C 66.183594 77.742188 66.195312 77.703125 66.203125 77.667969 C 66.214844 77.625 66.226562 77.582031 66.234375 77.539062 C 66.242188 77.5 66.25 77.464844 66.257812 77.425781 C 66.269531 77.382812 66.277344 77.335938 66.285156 77.292969 C 66.289062 77.257812 66.296875 77.21875 66.300781 77.179688 C 66.308594 77.136719 66.3125 77.089844 66.320312 77.042969 C 66.324219 77.003906 66.328125 76.96875 66.332031 76.929688 C 66.335938 76.882812 66.335938 76.835938 66.339844 76.785156 C 66.339844 76.75 66.34375 76.714844 66.34375 76.675781 C 66.347656 76.625 66.347656 76.574219 66.347656 76.523438 C 66.347656 76.488281 66.347656 76.453125 66.34375 76.421875 C 66.34375 76.363281 66.339844 76.304688 66.335938 76.246094 C 66.335938 76.21875 66.332031 76.1875 66.332031 76.160156 C 66.324219 76.074219 66.3125 75.984375 66.300781 75.898438 L 66.210938 75.28125 C 66.207031 75.257812 66.207031 75.230469 66.207031 75.207031 C 66.207031 75.199219 66.207031 75.191406 66.207031 75.183594 C 66.207031 75.167969 66.207031 75.152344 66.210938 75.132812 C 66.210938 75.125 66.210938 75.117188 66.210938 75.109375 C 66.214844 75.09375 66.21875 75.078125 66.222656 75.0625 C 66.222656 75.054688 66.226562 75.050781 66.226562 75.042969 C 66.234375 75.019531 66.242188 75 66.25 74.980469 C 66.25 74.976562 66.253906 74.976562 66.253906 74.976562 C 66.261719 74.957031 66.273438 74.9375 66.28125 74.921875 C 66.285156 74.914062 66.289062 74.910156 66.292969 74.902344 C 66.300781 74.890625 66.3125 74.875 66.320312 74.863281 C 66.324219 74.859375 66.332031 74.851562 66.335938 74.847656 C 66.34375 74.835938 66.355469 74.824219 66.367188 74.8125 C 66.371094 74.808594 66.375 74.804688 66.382812 74.800781 C 66.398438 74.785156 66.414062 74.769531 66.433594 74.757812 C 66.433594 74.757812 66.433594 74.753906 66.4375 74.753906 C 66.453125 74.742188 66.46875 74.730469 66.488281 74.722656 C 66.492188 74.71875 66.5 74.714844 66.503906 74.710938 C 66.519531 74.703125 66.535156 74.699219 66.546875 74.691406 C 66.554688 74.691406 66.5625 74.6875 66.570312 74.683594 C 66.582031 74.679688 66.597656 74.675781 66.613281 74.671875 C 66.621094 74.667969 66.625 74.667969 66.632812 74.664062 C 66.652344 74.660156 66.675781 74.65625 66.699219 74.652344 C 66.703125 74.652344 66.703125 74.652344 66.707031 74.652344 C 66.722656 74.652344 66.738281 74.652344 66.753906 74.652344 C 66.757812 74.652344 66.761719 74.652344 66.765625 74.652344 C 66.773438 74.652344 66.78125 74.652344 66.789062 74.652344 C 66.804688 74.652344 66.820312 74.65625 66.835938 74.65625 C 66.84375 74.660156 66.851562 74.660156 66.859375 74.660156 C 66.875 74.664062 66.890625 74.667969 66.910156 74.671875 C 66.914062 74.675781 66.921875 74.675781 66.929688 74.679688 C 66.953125 74.6875 66.976562 74.695312 67 74.707031 L 67.605469 75.007812 C 67.605469 75.007812 67.609375 75.007812 67.609375 75.007812 C 67.691406 75.046875 67.769531 75.085938 67.851562 75.117188 C 67.878906 75.128906 67.90625 75.140625 67.933594 75.152344 C 67.988281 75.171875 68.042969 75.195312 68.097656 75.214844 C 68.128906 75.226562 68.160156 75.234375 68.195312 75.246094 C 68.246094 75.261719 68.292969 75.28125 68.34375 75.292969 C 68.378906 75.304688 68.414062 75.3125 68.449219 75.320312 C 68.496094 75.335938 68.546875 75.347656 68.59375 75.359375 C 68.632812 75.367188 68.667969 75.375 68.703125 75.382812 C 68.75 75.390625 68.796875 75.402344 68.847656 75.410156 C 68.882812 75.414062 68.921875 75.417969 68.957031 75.425781 C 69.003906 75.429688 69.050781 75.4375 69.097656 75.441406 C 69.136719 75.449219 69.175781 75.449219 69.210938 75.453125 C 69.257812 75.457031 69.304688 75.460938 69.347656 75.464844 C 69.386719 75.464844 69.425781 75.464844 69.464844 75.46875 C 69.507812 75.46875 69.554688 75.46875 69.601562 75.46875 C 69.621094 75.46875 69.640625 75.46875 69.660156 75.46875 C 69.71875 75.46875 69.773438 75.464844 69.832031 75.460938 C 69.855469 75.460938 69.878906 75.457031 69.902344 75.457031 C 69.960938 75.453125 70.023438 75.445312 70.082031 75.441406 C 70.097656 75.4375 70.113281 75.4375 70.128906 75.433594 C 70.203125 75.425781 70.277344 75.414062 70.347656 75.402344 C 70.367188 75.398438 70.386719 75.394531 70.40625 75.390625 C 70.460938 75.378906 70.515625 75.367188 70.570312 75.355469 C 70.59375 75.351562 70.617188 75.34375 70.640625 75.339844 C 70.695312 75.324219 70.753906 75.308594 70.808594 75.292969 C 70.824219 75.289062 70.84375 75.285156 70.859375 75.28125 C 70.929688 75.257812 71 75.234375 71.070312 75.210938 C 71.085938 75.203125 71.101562 75.199219 71.121094 75.191406 C 71.171875 75.171875 71.226562 75.152344 71.28125 75.128906 C 71.300781 75.121094 71.324219 75.109375 71.34375 75.101562 C 71.398438 75.078125 71.449219 75.054688 71.5 75.03125 C 71.515625 75.023438 71.535156 75.015625 71.550781 75.007812 C 71.617188 74.976562 71.683594 74.941406 71.746094 74.90625 C 71.761719 74.898438 71.773438 74.886719 71.789062 74.878906 C 71.839844 74.851562 71.890625 74.820312 71.9375 74.792969 C 71.960938 74.777344 71.980469 74.765625 72 74.753906 C 72.046875 74.722656 72.09375 74.691406 72.136719 74.660156 C 72.15625 74.648438 72.171875 74.636719 72.1875 74.625 C 72.25 74.582031 72.308594 74.539062 72.363281 74.492188 C 72.375 74.484375 72.386719 74.472656 72.398438 74.460938 C 72.445312 74.425781 72.492188 74.386719 72.535156 74.347656 C 72.554688 74.332031 72.574219 74.316406 72.589844 74.296875 C 72.632812 74.261719 72.671875 74.222656 72.710938 74.183594 C 72.726562 74.171875 72.742188 74.15625 72.757812 74.140625 C 72.808594 74.089844 72.859375 74.035156 72.910156 73.976562 C 72.917969 73.96875 72.925781 73.957031 72.933594 73.949219 C 72.976562 73.902344 73.019531 73.855469 73.058594 73.804688 C 73.070312 73.785156 73.085938 73.765625 73.101562 73.75 C 73.136719 73.703125 73.167969 73.660156 73.203125 73.613281 C 73.214844 73.597656 73.226562 73.578125 73.242188 73.5625 C 73.285156 73.5 73.328125 73.4375 73.367188 73.371094 C 73.371094 73.363281 73.375 73.355469 73.382812 73.347656 C 73.417969 73.289062 73.449219 73.230469 73.484375 73.171875 C 73.496094 73.152344 73.507812 73.128906 73.519531 73.109375 C 73.542969 73.058594 73.570312 73.007812 73.59375 72.957031 C 73.605469 72.9375 73.613281 72.914062 73.625 72.894531 C 73.65625 72.824219 73.691406 72.753906 73.71875 72.679688 C 73.722656 72.675781 73.722656 72.667969 73.726562 72.664062 C 73.753906 72.597656 73.777344 72.527344 73.800781 72.457031 C 73.808594 72.433594 73.816406 72.410156 73.824219 72.386719 C 73.84375 72.332031 73.859375 72.273438 73.875 72.21875 C 73.882812 72.195312 73.890625 72.171875 73.894531 72.148438 C 73.914062 72.070312 73.9375 71.988281 73.953125 71.910156 C 74.160156 70.917969 74.234375 69.871094 74.15625 68.78125 C 74.140625 68.539062 74.117188 68.296875 74.085938 68.046875 C 74.054688 67.800781 74.015625 67.554688 73.96875 67.300781 C 73.921875 67.050781 73.871094 66.796875 73.808594 66.542969 C 73.746094 66.289062 73.675781 66.03125 73.601562 65.773438 C 73.019531 63.835938 71.996094 61.792969 70.46875 59.6875 C 70.21875 59.34375 69.949219 59.011719 69.664062 58.691406 C 69.472656 58.476562 69.273438 58.265625 69.066406 58.058594 C 68.863281 57.855469 68.648438 57.65625 68.429688 57.460938 C 68.210938 57.261719 67.984375 57.070312 67.753906 56.886719 C 66.941406 56.234375 66.058594 55.636719 65.132812 55.089844 C 61.171875 52.753906 56.410156 51.367188 52.964844 50.589844 C 53.015625 50.316406 53.042969 50.03125 53.042969 49.742188 C 53.042969 49.53125 53.027344 49.328125 53.003906 49.125 C 56.609375 49.917969 61.652344 51.367188 65.863281 53.847656 C 65.875 53.855469 65.882812 53.863281 65.894531 53.871094 C 66.71875 54.355469 67.480469 54.867188 68.179688 55.398438 C 68.261719 55.394531 68.347656 55.390625 68.433594 55.386719 C 68.484375 55.382812 68.535156 55.378906 68.585938 55.375 C 68.757812 55.363281 68.933594 55.351562 69.105469 55.332031 C 69.117188 55.332031 69.125 55.332031 69.136719 55.328125 C 69.320312 55.3125 69.5 55.289062 69.679688 55.265625 C 69.730469 55.257812 69.777344 55.25 69.824219 55.242188 C 69.96875 55.222656 70.113281 55.199219 70.253906 55.175781 C 70.296875 55.167969 70.335938 55.160156 70.378906 55.152344 C 70.554688 55.121094 70.726562 55.085938 70.902344 55.046875 C 70.9375 55.039062 70.972656 55.03125 71.011719 55.023438 C 71.152344 54.988281 71.292969 54.953125 71.429688 54.917969 C 71.476562 54.90625 71.527344 54.890625 71.574219 54.878906 C 71.746094 54.832031 71.914062 54.78125 72.082031 54.726562 C 75.351562 53.664062 77.84375 52.167969 79.617188 50.402344 C 80.683594 49.34375 81.488281 48.1875 82.046875 46.96875 C 82.316406 46.386719 82.445312 45.78125 82.457031 45.191406 C 82.457031 45.019531 82.453125 44.851562 82.433594 44.6875 C 82.410156 44.4375 82.363281 44.191406 82.300781 43.949219 " fill-opacity="1" fill-rule="nonzero"/></g></svg>